<?xml version="1.0" encoding="utf-8"?>
<!-- Generator: Adobe Illustrator 23.1.0, SVG Export Plug-In . SVG Version: 6.00 Build 0)  -->
<svg version="1.1" id="Layer_1" xmlns="http://www.w3.org/2000/svg" xmlns:xlink="http://www.w3.org/1999/xlink" x="0px" y="0px"
	 viewBox="0 0 500 500" style="enable-background:new 0 0 500 500;" xml:space="preserve">
<style type="text/css">
	.st0{fill:#36419B;}
	.st1{fill:#1E1347;}
</style>
<path class="st0" d="M65.5,111v256.4l176,70l-6.5-276.3c-37.7-16.4-75.4-32.7-113.2-49.1C103,111.7,84.2,111.3,65.5,111z"/>
<g transform="translate(0.000000,500.000000) scale(0.100000,-0.100000)">
	<path class="st1" d="M3873.8,4688.7v-143.9h143.9h143.9v143.9v143.9h-143.9h-143.9V4688.7z"/>
	<path class="st1" d="M3421.6,4390.7v-133.6h143.9h143.9v133.6v133.6h-143.9h-143.9V4390.7z"/>
	<path class="st1" d="M4295.1,4339.4c-51.4-57.5-49.3-162.4,6.2-207.6c41.1-30.8,45.2-55.5,45.2-217.8v-161.2
		c0-13.9-5.7-27.1-15.7-36.6l-107.6-102.2l-107.3-100.1c-10.2-9.6-16.1-22.9-16.1-36.9v-261.7v-161.6c0-45-54.4-67.6-86.3-35.7
		l-46.8,46.8c-9.5,9.5-14.9,22.5-14.8,36l1.9,350.9c0,347.3,4.1,376.1,43.2,415.1c41.1,41.1,53.4,133.6,24.7,176.7
		c-26.7,41.1-111,74-158.2,61.7c-119.2-30.8-152.1-156.2-61.7-240.5c51.4-49.3,51.4-51.4,51.4-433.6v-364.3
		c0-12.8,4.9-25.2,13.7-34.6l109.6-117l109.9-119.1c8.6-9.3,13.4-21.6,13.4-34.3v-331.7c0-222-8.2-369.9-22.6-396.6
		c-12.3-24.7-59.6-78.1-102.8-119.2l-64.4-61.1c-10.1-9.5-15.8-22.8-15.8-36.7v-251.6v-251.8c0-13.7-5.6-26.9-15.5-36.4l-93.4-89.9
		C3448.3,862,3403.1,825,3331.2,825c-100.7,0-168.5-30.8-275.4-123.3c-94.5-84.3-135.6-98.6-160.3-59.6
		c-14.4,24.7,115.1,166.5,209.6,224c34.9,22.6,111,47.3,168.5,55.5c92.5,14.4,123.3,34.9,300.1,197.3
		c145.9,135.6,201.4,199.3,217.8,256.9c32.9,121.3,26.7,998.8-8.2,1079c-16.4,37-113,148-215.8,250.7l-172,170.1
		c-9.6,9.5-15,22.4-15,35.9v131c0,135.6,6.2,156.2,51.4,199.4c65.8,59.6,65.8,139.8,0,203.5c-55.5,57.5-92.5,63.7-160.3,28.8
		c-61.7-32.9-76-57.5-76-135.6c0-49.3,14.4-76,51.4-100.7c49.3-30.8,51.4-43.2,51.4-219.9v-164.3c0-13.2,5.2-25.9,14.4-35.4
		l191.1-194.9l190.9-192.8c9.4-9.5,14.6-22.2,14.6-35.6v-474.5c0-429.4-3.8-491.5-32-521.1c-2.1-1.8-4.2-3.5-6.3-5.3
		c-27.5-17.9-135.6-58.9-249.4-94.2c-343.2-106.9-577.5-234.3-754.2-404.9l-65.7-63.9c-32.1-31.3-86-8.3-85.8,36.5l5.5,1065.3
		l6.1,1171.8c0,7.9,1.9,15.6,5.5,22.6l56.2,110.6c123.3,242.5,402.8,443.9,776.8,559l81.8,25.8c21,6.6,35.3,26.1,35.3,48.2v51.3
		c0,49.3-8.2,88.4-20.6,88.4c-10.3,0-104.8-26.7-209.6-61.7C2911.9,3840,2599.6,3618,2474.2,3394c-6.6-11.2-13.3-21.8-19.6-31.4
		c-18.8-28.3-59.5-30-81-3.7c-19.7,24-44.5,56-69.9,90.5c-115.1,158.2-230.2,244.6-495.3,376.1
		c-295.9,145.9-548.7,207.6-904.3,219.9c-273.3,10.3-289.8,8.2-332.9-32.9c-41.1-39-47.3-65.8-47.3-187c0-80.2-6.2-143.9-14.4-143.9
		c-10.3,0-53.4,10.3-98.6,20.6c-102.8,24.7-224-6.2-289.8-71.9c-9.3-10-21.1-24.8-31-44.8c-12.4-25.1-16.7-48.1-18.4-63.4
		c0-429.1,0-858.2,0-1287.2c2.7-447.4,2.7-896.8,0-1348.2c-0.2-27.4-0.3-54.7-0.5-82.1c-0.2-27.9,22.2-50.6,50.1-50.9l69.7-0.6
		l378.1-4.1c392.5-4.1,552.8-22.6,828.2-88.4c211.7-51.4,507.6-201.4,649.4-326.8c150-133.6,219.9-166.5,355.5-166.5
		c145.9,0,178.8,14.4,349.4,152.1c374,298,713.1,398.7,1430.4,421.3c452.1,14.4,478.9,20.6,542.6,127.4
		c28.8,49.3,32.9,154.1,32.9,828.2c0,735.7,2.1,774.8,41.1,838.5s41.1,104.8,41.1,587.8c0,509.7,0,522,45.2,556.9
		c51.4,43.2,59.6,154.1,14.4,195.2c-53.4,53.4-113,55.5-168.5,10.3c-67.8-51.4-74-139.8-14.4-193.2c39-34.9,41.1-63.7,41.1-552.8
		l2-494c0.1-13.9-5.6-27.3-15.8-36.9l-222.5-211l-220.7-211.1c-10-9.5-15.6-22.7-15.6-36.5v-77.1c0-104.8-49.3-226.1-121.3-289.8
		c-39-34.9-43.2-61.7-43.2-298c-2.1-164.4-10.3-275.4-26.7-302.1c-39-67.8-293.9-295.9-330.9-295.9c-67.8,0-28.8,76,111,205.5
		l127.7,118.6c10.3,9.6,16.1,23,16.1,37v257.5v256c0,13.7,5.6,26.8,15.4,36.3l46.2,44.7c86.3,84.3,123.3,174.7,123.3,312.4v99.9
		c0,13.7,5.5,26.7,15.3,36.2l130.6,126.9c80.2,80.2,158.2,172.6,174.7,209.6c16.4,39,28.8,135.6,28.8,232.2
		c0,137.7,6.2,170.6,41.1,205.5c53.4,53.4,51.4,123.3,0,180.9c-49.3,53.4-117.1,57.5-180.9,12.3c-59.6-41.1-63.7-160.3-4.1-197.3
		c37-22.6,41.1-49.3,41.1-211.7v-164.5c0-13.1-5.1-25.7-14.2-35.1l-105-108.6l-31.4-33.1c-31.2-32.9-86.6-11.1-87.2,34.2l-4.7,399.6
		l-3.9,501.1c-0.1,13.4,5.1,26.3,14.5,35.8l98.4,100.2l98.6,100.3c9.3,9.4,14.5,22.2,14.5,35.4v178.7c0,172.6,6.2,205.5,41.1,240.5
		c84.3,84.3,24.7,246.6-88.4,246.6C4354.7,4380.5,4315.6,4362,4295.1,4339.4z M1228.8,3813.2c509.7-106.9,863.2-316.5,1002.9-598.1
		l69.1-138.2c0.5-1,0.8-2.1,0.8-3.2l6.2-1159.5l4-1143.2c0-6.5-7.9-9.7-12.4-5l-84.1,87.7c-267.2,273.3-723.4,460.4-1239.3,505.6
		c-129.5,10.3-248.7,20.6-261,20.6c-20.6,0-26.7,258.9-26.7,1229c0,658.3,5.8,1207.5,15.6,1243.6c0.3,1.1,0.9,2,1.8,2.6
		C733.6,3876.3,1054.3,3849.8,1228.8,3813.2z M4339.8,1516c-15.3-30.4-53.9-42.7-79.7-16.8s-13.6,64.4,16.8,79.7
		C4315.5,1598.2,4359.2,1554.5,4339.8,1516z M4339.8,1269.3c-15.3-30.4-53.9-42.7-79.7-16.8c-25.9,25.9-13.6,64.4,16.8,79.7
		C4315.5,1351.6,4359.2,1307.8,4339.8,1269.3z"/>
	<path class="st1" d="M3226.4,2440.4c-16.4-26.7-26.7-63.7-18.5-82.2c18.5-45.2,80.2-76,121.3-61.7c22.6,8.2,57.5-10.3,104.8-55.5
		l69.9-67.8v-222c0-207.6,2.1-222,41.1-222c39,0,41.1,14.4,41.1,244.6v246.6l-117.1,133.6
		C3337.4,2502.1,3279.8,2522.6,3226.4,2440.4z"/>
</g>
</svg>
