<?xml version="1.0" encoding="utf-8"?>
<!-- Generator: Adobe Illustrator 23.1.0, SVG Export Plug-In . SVG Version: 6.00 Build 0)  -->
<svg version="1.1" id="Layer_1" xmlns="http://www.w3.org/2000/svg" xmlns:xlink="http://www.w3.org/1999/xlink" x="0px" y="0px"
	 viewBox="0 0 500 500" style="enable-background:new 0 0 500 500;" xml:space="preserve">
<style type="text/css">
	.st0{fill:#E1AF7E;}
	.st1{fill:#895029;}
</style>
<g>
	<path class="st0" d="M51,175.5c0,41.6,0,83.2,0,124.8c28.5,11.3,57.1,22.7,85.6,34l-3.2-134.4c-18.4-8-36.7-15.9-55.1-23.9
		C69.2,175.8,60.1,175.7,51,175.5z"/>
	<g transform="translate(0.000000,500.000000) scale(0.100000,-0.100000)">
		<path class="st1" d="M2075.9,3633.4v-70h70h70v70v70h-70h-70V3633.4z"/>
		<path class="st1" d="M1855.9,3488.4v-65h70h70v65v65h-70h-70V3488.4z"/>
		<path class="st1" d="M2280.9,3463.4c-25-28-24-79,3-101c20-15,22-27,22-106V3178c0-6.7-2.8-13.2-7.7-17.8l-52.3-49.7l-52.2-48.7
			c-5-4.7-7.8-11.2-7.8-18v-127.3v-78.6c0-21.9-26.5-32.9-42-17.4l-22.8,22.8c-4.6,4.6-7.2,11-7.2,17.5l0.9,170.7
			c0,169,2,183,21,202c20,20,26,65,12,86c-13,20-54,36-77,30c-58-15-74-76-30-117c25-24,25-25,25-211v-177.3
			c0-6.2,2.4-12.3,6.7-16.8l53.3-56.9l53.5-57.9c4.2-4.5,6.5-10.5,6.5-16.7v-161.4c0-108-4-180-11-193c-6-12-29-38-50-58l-31.3-29.7
			c-4.9-4.6-7.7-11.1-7.7-17.8v-122.4v-122.5c0-6.7-2.7-13.1-7.5-17.7l-45.5-43.7c-164-158-186-176-221-176c-49,0-82-15-134-60
			c-46-41-66-48-78-29c-7,12,56,81,102,109c17,11,54,23,82,27c45,7,60,17,146,96c71,66,98,97,106,125c16,59,13,486-4,525
			c-8,18-55,72-105,122l-83.7,82.8c-4.7,4.6-7.3,10.9-7.3,17.5v63.7c0,66,3,76,25,97c32,29,32,68,0,99c-27,28-45,31-78,14
			c-30-16-37-28-37-66c0-24,7-37,25-49c24-15,25-21,25-107v-80c0-6.4,2.5-12.6,7-17.2l93-94.8l92.9-93.8c4.6-4.6,7.1-10.8,7.1-17.3
			v-230.9c0-208.8-1.9-239.1-15.5-253.6c-1-0.9-2.1-1.7-3.1-2.6c-13.4-8.7-66-28.6-121.3-45.8c-167-52-281-114-367-197l-32-31.1
			c-15.6-15.2-41.9-4.1-41.7,17.8l2.7,518.3l3,570.2c0,3.8,0.9,7.6,2.7,11l27.4,53.8c60,118,196,216,378,272l39.8,12.6
			c10.2,3.2,17.2,12.7,17.2,23.4v25c0,24-4,43-10,43c-5,0-51-13-102-30c-166-53-318-161-379-270c-3.2-5.5-6.4-10.6-9.5-15.2
			c-9.2-13.8-29-14.6-39.5-1.8c-9.6,11.7-21.7,27.3-34,44c-56,77-112,119-241,183c-144,71-267,101-440,107c-133,5-141,4-162-16
			c-20-19-23-32-23-91c0-39-3-70-7-70c-5,0-26,5-48,10c-50,12-109-3-141-35c-4.5-4.9-10.3-12.1-15.1-21.8c-6-12.2-8.1-23.4-8.9-30.9
			c0-208.8,0-417.6,0-626.3c1.3-217.7,1.3-436.4,0-656c-0.1-13.3-0.2-26.6-0.3-39.9c-0.1-13.6,10.8-24.6,24.4-24.7l33.9-0.3l184-2
			c191-2,269-11,403-43c103-25,247-98,316-159c73-65,107-81,173-81c71,0,87,7,170,74c182,145,347,194,696,205c220,7,233,10,264,62
			c14,24,16,75,16,403c0,358,1,377,20,408c19,31,20,51,20,286c0,248,0,254,22,271c25,21,29,75,7,95c-26,26-55,27-82,5
			c-33-25-36-68-7-94c19-17,20-31,20-269l1-240.4c0-6.8-2.7-13.3-7.7-17.9l-108.3-102.7l-107.4-102.7c-4.8-4.6-7.6-11.1-7.6-17.8
			v-37.5c0-51-24-110-59-141c-19-17-21-30-21-145c-1-80-5-134-13-147c-19-33-143-144-161-144c-33,0-14,37,54,100l62.1,57.7
			c5,4.7,7.9,11.2,7.9,18v125.3V2209c0,6.7,2.7,13,7.5,17.7l22.5,21.8c42,41,60,85,60,152v48.6c0,6.6,2.7,13,7.5,17.6l63.5,61.8
			c39,39,77,84,85,102c8,19,14,66,14,113c0,67,3,83,20,100c26,26,25,60,0,88c-24,26-57,28-88,6c-29-20-31-78-2-96
			c18-11,20-24,20-103v-80.1c0-6.4-2.5-12.5-6.9-17.1l-51.1-52.9l-15.3-16.1c-15.2-16-42.2-5.4-42.4,16.6l-2.3,194.5l-1.9,243.8
			c-0.1,6.5,2.5,12.8,7,17.4l47.9,48.7l48,48.8c4.5,4.6,7,10.8,7,17.2v86.9c0,84,3,100,20,117c41,41,12,120-43,120
			C2309.9,3483.4,2290.9,3474.4,2280.9,3463.4z M788.9,3207.4c248-52,420-154,488-291l33.6-67.3c0.2-0.5,0.4-1,0.4-1.5l3-564.2
			l2-556.2c0-3.2-3.8-4.7-6-2.4l-40.9,42.7c-130,133-352,224-603,246c-63,5-121,10-127,10c-10,0-13,126-13,598
			c0,317.9,2.8,583.4,7.5,604.7c0.2,0.8,0.6,1.5,1.3,1.9C550.2,3237.9,704.6,3225.1,788.9,3207.4z M2302.7,2089.6
			c-7.4-14.8-26.2-20.8-38.8-8.2c-12.6,12.6-6.6,31.3,8.2,38.8C2290.8,2129.6,2312.1,2108.3,2302.7,2089.6z M2302.7,1969.6
			c-7.4-14.8-26.2-20.8-38.8-8.2c-12.6,12.6-6.6,31.3,8.2,38.8C2290.8,2009.6,2312.1,1988.3,2302.7,1969.6z"/>
		<path class="st1" d="M1760.9,2539.4c-8-13-13-31-9-40c9-22,39-37,59-30c11,4,28-5,51-27l34-33v-108c0-101,1-108,20-108
			s20,7,20,119v120l-57,65C1814.9,2569.4,1786.9,2579.4,1760.9,2539.4z"/>
	</g>
</g>
<g>
	<g>
		<path class="st1" d="M272.7,268v-20h-2v-4h4.2v4.4h1.7c0.7-1.4,1.7-2.5,3.1-3.3c1.4-0.8,3.1-1.2,5-1.2h2v3.2h-2.2
			c-2.5,0-4.5,0.7-5.9,2.2c-1.4,1.5-2.1,3.5-2.1,6.1V268H272.7z"/>
		<path class="st1" d="M301.7,268.4c-2.5,0-4.6-0.5-6.4-1.5s-3.2-2.5-4.2-4.4s-1.5-4.1-1.5-6.6c0-2.5,0.5-4.7,1.5-6.6
			c1-1.9,2.4-3.3,4.2-4.3c1.8-1,3.9-1.5,6.3-1.5c2.3,0,4.2,0.5,5.9,1.4s2.9,2.2,3.9,3.9c0.9,1.7,1.4,3.7,1.4,6v1.7h-19.4
			c0.1,2.7,0.9,4.9,2.4,6.4c1.5,1.5,3.5,2.3,6,2.3c1.7,0,3.2-0.4,4.4-1.1c1.2-0.7,2-1.8,2.5-3.2h3.8c-0.6,2.4-1.9,4.3-3.7,5.6
			C306.8,267.8,304.5,268.4,301.7,268.4z M293.4,253.5H309c-0.2-2.2-0.9-3.8-2.3-5c-1.3-1.2-3.1-1.8-5.2-1.8s-4,0.6-5.4,1.8
			C294.7,249.7,293.8,251.4,293.4,253.5z"/>
		<path class="st1" d="M325.1,268.4c-2.7,0-4.8-0.7-6.3-2c-1.5-1.3-2.3-3.1-2.3-5.2c0-2.3,0.8-4.1,2.3-5.3c1.5-1.3,3.7-1.9,6.5-1.9
			h8.6v-1.1c0-4.1-2.2-6.2-6.6-6.2c-3.6,0-5.7,1.4-6.4,4.1H317c0.4-2.3,1.5-4.1,3.3-5.4c1.9-1.3,4.2-1.9,7.1-1.9
			c3.3,0,5.7,0.8,7.5,2.3s2.6,3.8,2.6,6.7V264h1.8v4h-4.2v-3.6h-1.7c-0.8,1.2-2,2.2-3.4,2.9C328.6,268,326.9,268.4,325.1,268.4z
			 M325.5,265.3c1.5,0,2.9-0.3,4.2-1c1.3-0.6,2.3-1.5,3-2.6c0.7-1.1,1.1-2.3,1.1-3.6v-1.3h-8.4c-3.7,0-5.6,1.4-5.6,4.2
			c0,1.3,0.5,2.3,1.5,3.1S323.8,265.3,325.5,265.3z"/>
		<path class="st1" d="M354.9,268.4c-2.3,0-4.4-0.5-6.1-1.5s-3-2.4-3.9-4.3s-1.3-4.1-1.3-6.7c0-2.6,0.4-4.8,1.3-6.7
			c0.9-1.9,2.1-3.3,3.8-4.3c1.6-1,3.6-1.5,5.9-1.5c2,0,3.7,0.4,5.1,1.2c1.4,0.8,2.5,1.9,3.3,3.4h0.2v-13.7h3.8V264h2v4h-4.2v-3.6
			h-1.7c-0.8,1.3-1.9,2.3-3.2,3C358.5,268.1,356.8,268.4,354.9,268.4z M355.4,265.2c2.3,0,4.2-0.7,5.6-2c1.4-1.3,2.1-3.1,2.1-5.3
			V254c0-2.2-0.7-4-2.1-5.3c-1.4-1.3-3.3-2-5.6-2c-2.5,0-4.5,0.8-5.9,2.4c-1.4,1.6-2.1,3.9-2.1,6.8c0,2.9,0.7,5.2,2.1,6.8
			C350.9,264.4,352.9,265.2,355.4,265.2z"/>
		<path class="st1" d="M373.5,268v-33.6h7.4v12.9h0.2c0.8-1.2,1.8-2.2,3.1-2.8c1.3-0.6,2.8-0.9,4.6-0.9c3,0,5.4,0.9,7.2,2.8
			c1.8,1.8,2.6,4.3,2.6,7.4V268h-7.4v-12.8c0-1.7-0.4-2.9-1.3-3.8c-0.9-0.9-2.1-1.3-3.8-1.3s-3,0.4-3.8,1.3
			c-0.9,0.9-1.3,2.1-1.3,3.8V268H373.5z"/>
		<path class="st1" d="M413.5,268.4c-3.4,0-6.1-0.9-7.8-2.7c-1.8-1.8-2.7-4.2-2.7-7.3V244h7.4V257c0,1.6,0.4,2.8,1.2,3.6
			c0.8,0.8,2,1.2,3.7,1.2c1.7,0,3.1-0.4,4-1.3c0.9-0.9,1.4-2.1,1.4-3.7V244h7.4v16.8h3.6v7.2h-7.4v-4h-1.7c-1,1.4-2.2,2.5-3.5,3.3
			C417.6,268,415.8,268.4,413.5,268.4z"/>
		<path class="st1" d="M450.9,268.4c-2,0-3.8-0.4-5.2-1.2c-1.5-0.8-2.6-1.9-3.5-3.3h-1.7v4h-7.4v-7.2h3.6v-26.4h7.4V247h0.2
			c0.7-1.1,1.6-2,2.9-2.6c1.2-0.6,2.7-0.9,4.4-0.9c2.3,0,4.3,0.5,5.9,1.6c1.6,1,2.9,2.5,3.7,4.4c0.9,1.9,1.3,4.1,1.3,6.5
			c0,2.5-0.4,4.6-1.3,6.5s-2.2,3.3-3.9,4.4C455.5,267.9,453.4,268.4,450.9,268.4z M449.5,262c1.9,0,3.3-0.5,4.2-1.6s1.4-2.6,1.4-4.4
			c0-1.9-0.5-3.3-1.4-4.4c-0.9-1.1-2.3-1.6-4.2-1.6c-1.7,0-3,0.5-3.9,1.4c-1,0.9-1.4,2.2-1.4,3.8v1.8c0,1.6,0.5,2.9,1.4,3.8
			S447.8,262,449.5,262z"/>
	</g>
</g>
</svg>
